<svg width="40" height="40" viewBox="0 0 40 40" fill="none" xmlns="http://www.w3.org/2000/svg" role="img" aria-label="Predio360">
  <defs>
    <linearGradient id="pmg" x1="6" y1="6" x2="34" y2="36" gradientUnits="userSpaceOnUse">
      <stop stop-color="#22C08A"/>
      <stop offset="1" stop-color="#0EA5A6"/>
    </linearGradient>
  </defs>
  <!-- Casa -->
  <path d="M8 19.2 20 9l12 10.2" stroke="url(#pmg)" stroke-width="2.6" stroke-linecap="round" stroke-linejoin="round"/>
  <path d="M10.4 17.4V29a2 2 0 0 0 2 2h15.2a2 2 0 0 0 2-2V17.4" stroke="url(#pmg)" stroke-width="2.6" stroke-linecap="round" stroke-linejoin="round"/>
  <path d="M17 31v-6.2a1.6 1.6 0 0 1 1.6-1.6h2.8a1.6 1.6 0 0 1 1.6 1.6V31" stroke="url(#pmg)" stroke-width="2.4" stroke-linecap="round" stroke-linejoin="round"/>
  <!-- Hoja -->
  <path d="M25.5 8.8c3.4-1 6.2-.4 6.2-.4s.4 2.8-1 5.2c-1.2 2-3.6 2.5-5 1.2-1.3-1.3-1.4-3.6-.2-5.1a5 5 0 0 1 .0 0Z" fill="url(#pmg)"/>
  <path d="M31 8.8c-1.8 1.2-3.2 2.7-4.1 4.6" stroke="#fff" stroke-width="1.1" stroke-linecap="round"/>
</svg>
